<?xml version="1.0" encoding="UTF-8" standalone="no"?>
<svg
   version="1.1"
   id="Layer_1"
   x="0px"
   y="0px"
   width="100%"
   viewBox="0 0 512 512"
   enable-background="new 0 0 512 512"
   xml:space="preserve"
   sodipodi:docname="weather-app_adobe_express.svg"
   inkscape:version="1.2.1 (9c6d41e4, 2022-07-14)"
   xmlns:inkscape="http://www.inkscape.org/namespaces/inkscape"
   xmlns:sodipodi="http://sodipodi.sourceforge.net/DTD/sodipodi-0.dtd"
   xmlns="http://www.w3.org/2000/svg"
   xmlns:svg="http://www.w3.org/2000/svg"><defs
   id="defs73" /><sodipodi:namedview
   id="namedview71"
   pagecolor="#ffffff"
   bordercolor="#000000"
   borderopacity="0.25"
   inkscape:showpageshadow="2"
   inkscape:pageopacity="0.0"
   inkscape:pagecheckerboard="0"
   inkscape:deskcolor="#d1d1d1"
   showgrid="false"
   inkscape:zoom="0.4609375"
   inkscape:cx="237.55932"
   inkscape:cy="250.57627"
   inkscape:window-width="1518"
   inkscape:window-height="857"
   inkscape:window-x="0"
   inkscape:window-y="25"
   inkscape:window-maximized="0"
   inkscape:current-layer="Layer_1" />

<path
   fill="#9EA9C8"
   opacity="1.000000"
   stroke="none"
   d=" M145.318100,142.371216   C147.929276,125.362175 158.459824,115.152092 172.662491,107.073708   C217.315063,81.675591 261.666473,55.748032 306.143433,30.040955   C308.301514,28.793619 310.525238,27.654833 312.752625,26.533472   C317.240143,24.274307 321.632751,24.284573 326.015717,26.966520   C337.217224,33.820755 348.462402,40.603584 359.864777,47.708050   C331.406830,59.619900 306.274231,77.608475 279.421844,92.462692   C254.393936,106.307663 229.809174,120.960533 205.090698,135.362701   C191.253128,143.425140 184.884445,155.967865 184.244583,171.712784   C184.110535,175.011536 184.794601,178.376022 183.251160,181.907318   C182.701050,182.281967 182.421570,182.342056 181.703842,182.370728   C178.931793,181.834061 177.025452,180.438629 174.984573,179.323334   C170.056091,176.630035 169.609009,176.909393 169.545685,182.729889   C169.536621,183.563110 169.544327,184.396500 169.544327,185.229813   C169.544388,268.227570 169.635284,351.225586 169.388947,434.222595   C169.366867,441.663269 170.898193,446.817993 178.430603,449.087738   C179.840744,449.512695 181.083267,450.472626 182.689758,451.611511   C183.368179,451.998016 183.628525,452.172699 184.203461,452.698181   C185.745865,455.344879 185.515839,457.854614 185.499649,460.305939   C185.446518,468.353333 185.401688,476.396759 186.301025,484.790436   C175.673050,480.292694 166.566818,473.147888 156.347473,468.028839   C147.658493,463.676392 145.076187,456.822418 145.089584,447.739410   C145.175064,389.788818 145.070648,331.837952 145.090637,273.419128   C145.244675,272.800507 145.336807,272.649963 145.291016,272.273438   C145.110794,269.967926 145.068512,267.888397 145.084351,265.366211   C145.925354,261.322937 145.484482,257.674957 145.488663,254.053925   C145.511765,234.019043 145.582184,213.983963 145.289185,193.503235   C145.078079,177.000351 145.043289,160.943344 145.066589,144.417633   C145.384308,143.563995 145.506134,143.141953 145.318100,142.371216  z"
   id="path4" />
<path
   fill="#506078"
   opacity="1.000000"
   stroke="none"
   d=" M184.473999,453.434937   C183.958969,453.278778 183.778336,453.278687 183.342560,453.187439   C181.619995,451.500732 181.416672,449.514740 181.419205,447.494293   C181.476868,401.387543 181.133423,355.280243 181.648499,308.712219   C182.564972,305.151367 183.079239,302.033295 182.115387,298.424683   C181.530121,295.475342 181.549225,292.929230 181.882233,289.955200   C182.270065,288.128784 182.293961,286.727570 181.800293,284.881104   C181.052170,275.971039 181.441742,267.497101 181.418243,259.030609   C181.355057,236.274200 181.384476,213.517487 181.411804,190.760925   C181.414978,188.123718 181.097244,185.424881 182.666962,182.560989   C183.000717,182.199631 183.009399,181.922943 183.015274,181.784668   C186.165039,177.727036 190.880692,176.122849 195.010529,173.736526   C234.601501,150.860016 274.131134,127.877525 313.735077,105.023575   C329.433075,95.964859 345.107452,86.865433 360.809174,77.813446   C362.944519,76.582443 365.065308,75.154182 368.043182,75.211182   C368.587524,163.459686 368.781281,251.593369 368.971008,339.727051   C368.975311,341.725739 368.934052,343.724518 368.856049,346.163635   C367.711151,349.134430 365.216583,349.990997 363.109894,351.220032   C319.397278,376.722534 275.396240,401.726898 231.726974,427.304840   C217.504990,435.634918 203.155716,443.746948 188.976685,452.151611   C187.688141,452.915405 186.414520,453.739227 184.473999,453.434937  z"
   id="path6" />
<path
   fill="#E2E7F0"
   opacity="1.000000"
   stroke="none"
   d=" M184.106140,453.727112   C201.158920,443.464783 218.195679,433.680817 235.193970,423.830475   C272.880280,401.991638 310.544556,380.114746 348.224670,358.265228   C354.842285,354.427887 361.493286,350.648132 368.463440,346.722900   C369.084381,355.907837 370.251617,365.394501 368.468079,374.469147   C365.675781,388.676575 356.849213,398.736298 343.985229,405.628754   C331.741241,412.188995 320.038208,419.754181 307.842438,426.410522   C293.636536,434.163910 279.731262,442.447632 265.698486,450.484528   C252.360077,458.123718 238.950974,465.688477 225.821243,473.712097   C218.349609,478.278076 210.780594,482.702972 203.087357,486.882019   C197.439270,489.950073 191.674423,490.248291 186.217102,485.486389   C182.392090,475.044189 184.506912,464.528168 184.106140,453.727112  z"
   id="path8" />
<path
   fill="#E1E5EF"
   opacity="1.000000"
   stroke="none"
   d=" M368.546906,74.999268   C353.073914,84.051086 337.712158,92.704430 322.440918,101.514626   C276.173370,128.207001 229.940857,154.960144 183.357941,181.667999   C183.219070,176.168060 182.469025,170.662552 183.439026,165.207626   C186.123306,150.112259 194.604935,139.590439 207.906235,132.009735   C254.689529,105.346909 301.259918,78.310539 347.904572,51.404514   C351.415192,49.379475 355.098145,48.022141 359.623657,48.034363   C360.039429,48.001114 359.988159,48.003101 359.985901,47.977528   C360.120697,48.097111 360.257721,48.242264 360.646545,48.225342   C366.916412,50.433167 368.316132,55.810009 368.876495,61.285824   C369.327789,65.695831 368.795441,70.206497 368.546906,74.999268  z"
   id="path10" />
<path
   fill="#96A1BD"
   opacity="1.000000"
   stroke="none"
   d=" M145.067093,193.519073   C146.295273,194.082901 145.990982,195.478653 145.991638,196.769974   C146.002655,218.637497 146.000015,240.505005 145.982315,262.372528   C145.981781,263.020294 145.785126,263.667938 145.411194,264.619568   C145.102097,241.275940 145.061707,217.628372 145.067093,193.519073  z"
   id="path12" />
<path
   fill="#96A1BD"
   opacity="1.000000"
   stroke="none"
   d=" M145.109467,142.376831   C145.818375,142.483749 146.059814,142.992935 145.326843,143.811920   C145.099747,143.528595 145.074814,143.108231 145.109467,142.376831  z"
   id="path14" />
<path
   fill="#9EA9C8"
   opacity="1.000000"
   stroke="none"
   d=" M360.669495,48.036903   C360.748047,48.498695 360.547150,48.783482 360.041290,48.141827   C359.983643,47.951954 360.440613,48.010536 360.669495,48.036903  z"
   id="path16" />
<path
   fill="#96A1BD"
   opacity="1.000000"
   stroke="none"
   d=" M145.118332,272.273315   C145.533249,272.213165 145.626358,272.459167 145.292465,272.868225   C145.152527,272.951080 145.083572,272.499237 145.118332,272.273315  z"
   id="path18" />
<path
   fill="#1D2943"
   opacity="1.000000"
   stroke="none"
   d=" M183.260574,306.533997   C183.074509,355.347900 183.065063,403.744904 183.071503,452.619080   C178.654388,450.849213 174.268036,448.502625 169.770035,446.394165   C167.257950,445.216614 167.899353,443.129974 167.893997,441.249969   C167.853745,427.101013 167.871948,412.951843 167.871933,398.802765   C167.871857,326.059784 167.871796,253.316803 167.871719,180.573822   C167.871719,178.585098 167.871719,176.596359 167.871719,173.445816   C173.148453,176.496613 177.770096,179.168640 182.696228,182.020157   C183.004486,216.499847 183.008255,250.800064 183.046753,285.570312   C183.559586,286.727081 183.481262,287.502563 183.259811,288.615967   C183.058563,291.686005 183.035187,294.412537 183.045074,297.592529   C183.880951,300.705994 183.338989,303.425751 183.260574,306.533997  z"
   id="path20" />
<path
   fill="#162238"
   opacity="1.000000"
   stroke="none"
   d=" M324.979218,53.595345   C325.611908,55.963375 324.343536,57.068874 323.093811,58.182682   C315.703613,64.769188 298.730957,64.323280 291.765778,57.312847   C291.103149,56.645908 290.740723,55.680679 290.140167,54.533340   C290.508026,52.559147 291.391846,51.196102 292.884308,50.300968   C301.788849,44.960133 312.370605,44.310944 321.677216,49.615143   C323.106476,50.429722 324.476746,51.422707 324.979218,53.595345  z"
   id="path22" />
<path
   fill="#FBFCFD"
   opacity="1.000000"
   stroke="none"
   d=" M165.845184,138.992889   C163.677841,138.105133 161.840744,137.374146 159.632904,136.495651   C168.240448,134.371719 173.613266,129.418259 175.489319,120.225822   C177.893356,128.888733 182.772049,134.391434 191.897827,136.595779   C183.048004,138.970688 177.948471,144.201843 175.533691,153.050110   C174.236908,146.420288 170.862213,142.312469 165.845184,138.992889  z"
   id="path24" />
<path
   fill="#E7E8ED"
   opacity="1.000000"
   stroke="none"
   d=" M325.327576,53.781910   C315.468079,45.059116 299.621124,45.028858 290.363892,54.074280   C289.218445,48.856129 291.430084,45.687965 297.668579,43.286716   C306.380157,39.933567 318.741547,41.881924 323.870758,47.307678   C325.608734,49.146156 326.596436,51.039379 325.327576,53.781910  z"
   id="path26" />
<path
   fill="#FEFEFD"
   opacity="1.000000"
   stroke="none"
   d=" M348.039734,228.988007   C351.473755,227.364166 354.827881,223.207581 357.300995,224.587418   C359.772949,225.966629 358.147278,230.973282 358.165039,234.370300   C358.341187,268.012146 358.373444,301.654816 358.584564,335.296387   C358.605591,338.651703 357.738617,340.642395 354.660645,342.420074   C302.665955,372.449310 250.756241,402.625671 198.805176,432.730560   C197.434616,433.524750 196.222931,434.845184 193.904877,434.699524   C193.904877,433.063416 193.906830,431.465271 193.904602,429.867157   C193.855408,394.392761 193.867844,358.918030 193.663223,323.444550   C193.641983,319.761932 194.865707,317.893066 197.981888,316.090118   C247.936478,287.188202 297.814148,258.153320 348.039734,228.988007  z"
   id="path28" />
<path
   fill="#FEFEFE"
   opacity="1.000000"
   stroke="none"
   d=" M242.140457,277.162445   C226.033707,286.499939 210.250580,295.666473 194.470291,304.831360   C193.195633,303.119263 193.657776,301.586182 193.651779,300.168335   C193.500443,264.351990 193.420639,228.535278 193.203461,192.719406   C193.185287,189.723465 193.972351,187.886490 196.659241,186.331802   C249.505844,155.753876 302.301331,125.087570 355.109924,94.443939   C355.804688,94.040810 356.534363,93.697861 357.995087,92.938103   C357.995087,94.863441 357.993134,96.255119 357.995361,97.646797   C358.053101,133.463943 358.051178,169.281433 358.259705,205.097702   C358.281250,208.800232 356.990936,210.615387 353.869324,212.414108   C316.678772,233.843613 279.583954,255.439316 242.140457,277.162445  z"
   id="path30" />
<path
   fill="#56647C"
   opacity="1.000000"
   stroke="none"
   d=" M183.355240,306.674072   C183.061432,304.278076 183.038925,301.605286 183.047363,298.489227   C184.766388,300.730927 183.965927,303.579224 183.355240,306.674072  z"
   id="path32" />
<path
   fill="#56647C"
   opacity="1.000000"
   stroke="none"
   d=" M183.316467,288.778259   C183.060944,288.229065 183.039917,287.498657 183.050186,286.404327   C184.051773,286.743164 184.149292,287.606232 183.316467,288.778259  z"
   id="path34" />
<path
   fill="#9FAAC9"
   opacity="1.000000"
   stroke="none"
   d=" M280.080322,407.218231   C284.801025,408.079315 287.227631,410.819397 286.953430,415.197327   C286.402344,423.995392 282.638153,431.039337 274.510590,435.136627   C269.456451,437.684540 265.218536,435.016296 264.965820,429.358429   C264.505646,419.054810 270.195923,410.529144 280.080322,407.218231  z"
   id="path36" />
<path
   fill="#A0ABCA"
   opacity="1.000000"
   stroke="none"
   d=" M280.396088,104.367584   C284.329041,102.155701 287.931122,100.101738 291.586761,98.147865   C292.690979,97.557693 293.912811,96.572151 295.201904,97.852615   C296.281616,98.925079 296.171753,100.324203 295.885742,101.604530   C295.315369,104.157768 293.783661,105.978287 291.471130,107.312035   C277.398926,115.428009 263.374298,123.626427 249.311142,131.758133   C247.770401,132.649017 246.000671,133.934143 244.311981,132.312973   C242.507935,130.581039 243.622482,128.676758 244.496262,126.839470   C245.560303,124.602135 247.437424,123.379982 249.500809,122.202530   C259.722443,116.369690 269.895569,110.451820 280.396088,104.367584  z"
   id="path38" />
<path
   fill="#A0ABCA"
   opacity="1.000000"
   stroke="none"
   d=" M299.972168,97.908470   C299.893951,95.773811 300.603699,94.263634 301.619171,92.960663   C302.820953,91.418587 304.058380,89.640198 306.416290,90.085526   C308.488617,90.476898 308.027069,92.263779 308.081146,93.678719   C308.213165,97.131958 306.037842,99.225471 303.357880,100.616669   C301.462036,101.600822 300.306122,100.261864 299.972168,97.908470  z"
   id="path40" />
<path
   fill="#FEBD21"
   opacity="1.000000"
   stroke="none"
   d=" M292.980835,340.915375   C288.323486,348.157654 283.018585,354.265320 275.703461,358.354401   C262.259766,365.869354 250.671890,359.418579 251.175476,344.029999   C251.787567,325.326324 260.605804,310.810516 276.191681,300.449890   C277.150879,299.812286 278.247894,299.364563 279.315613,298.910309   C290.856537,293.999908 300.167419,299.718628 301.001770,312.220398   C301.694000,322.592804 298.316833,331.841187 292.980835,340.915375  z"
   id="path42" />
<path
   fill="#FEC131"
   opacity="1.000000"
   stroke="none"
   d=" M261.665985,367.010712   C263.419586,369.383179 261.053894,370.179718 260.157562,371.400574   C257.926147,374.439972 255.428589,377.283997 252.193359,381.238800   C252.830048,377.023346 253.219223,374.162872 253.700546,371.317963   C254.763123,365.037384 254.782043,365.040588 261.665985,367.010712  z"
   id="path44" />
<path
   fill="#FEC130"
   opacity="1.000000"
   stroke="none"
   d=" M244.339417,363.200684   C242.230072,364.108826 240.463211,364.876678 237.296906,366.252747   C240.740692,360.551605 243.466537,356.038971 246.291565,351.362152   C250.993805,359.824677 250.915695,360.320221 244.339417,363.200684  z"
   id="path46" />
<path
   fill="#FEC131"
   opacity="1.000000"
   stroke="none"
   d=" M299.180359,282.762787   C298.758392,285.598816 298.276245,288.036713 298.072693,290.497650   C297.886383,292.749939 296.865265,293.166290 294.794495,292.809998   C288.801971,291.778931 288.610199,291.409882 292.437622,286.665833   C294.595062,283.991730 296.811279,281.365082 299.858459,277.680115   C299.543884,280.074402 299.392761,281.224548 299.180359,282.762787  z"
   id="path48" />
<path
   fill="#FEC130"
   opacity="1.000000"
   stroke="none"
   d=" M253.725906,314.115784   C251.675232,304.450073 251.675674,304.447174 261.050415,305.870880   C261.523590,305.942749 261.977875,306.138885 262.858490,306.401855   C260.572113,309.666931 258.580200,312.932281 256.161713,315.843262   C253.888351,318.579620 254.252823,315.595520 253.725906,314.115784  z"
   id="path50" />
<path
   fill="#FEC130"
   opacity="1.000000"
   stroke="none"
   d=" M302.548584,299.071442   C305.357849,295.484375 309.723236,295.156525 314.109619,293.739960   C311.423248,298.177216 308.736908,302.614502 305.591553,307.809937   C304.375092,304.353485 303.506165,301.884552 302.548584,299.071442  z"
   id="path52" />
<path
   fill="#FEC130"
   opacity="1.000000"
   stroke="none"
   d=" M278.455811,294.444275   C275.921082,295.627533 274.098877,297.469238 270.952301,297.960297   C272.543488,292.945984 274.020203,288.292542 275.496918,283.639099   C276.698883,287.258759 283.548401,289.109009 278.455811,294.444275  z"
   id="path54" />
<path
   fill="#FEC130"
   opacity="1.000000"
   stroke="none"
   d=" M308.227478,326.295044   C306.565155,327.399353 305.206543,328.284912 303.227844,329.574707   C302.822937,325.154938 304.459930,321.724091 305.238068,318.194702   C305.560150,316.733948 306.758209,317.406433 307.636688,317.815094   C309.865295,318.851807 312.269287,319.575684 314.222046,321.376434   C312.773621,323.581696 310.400177,324.531525 308.227478,326.295044  z"
   id="path56" />
<path
   fill="#FEC02D"
   opacity="1.000000"
   stroke="none"
   d=" M280.673004,361.320984   C279.491028,366.062073 278.134003,370.456726 276.649902,375.262939   C273.870392,373.084625 273.210602,370.083862 271.676941,367.674286   C270.824463,366.334900 271.393860,365.518677 272.624725,364.944397   C275.289734,363.700928 277.451202,361.459015 280.673004,361.320984  z"
   id="path58" />
<path
   fill="#FEBF2A"
   opacity="1.000000"
   stroke="none"
   d=" M248.832489,333.174866   C248.564331,334.178894 248.337601,334.801941 248.188370,335.442993   C246.748810,341.627075 244.222260,342.310333 239.114517,338.153046   C237.427094,336.779633 238.620911,336.359314 239.458725,335.642334   C239.833237,335.321777 240.259033,335.060974 240.662872,334.774933   C243.334518,332.882324 246.006516,330.990265 248.817429,328.999573   C249.950027,330.445282 248.814362,331.639496 248.832489,333.174866  z"
   id="path60" />
<path
   fill="#FEBF2A"
   opacity="1.000000"
   stroke="none"
   d=" M298.387634,344.039246   C298.850098,346.175781 299.093658,347.980316 299.593353,349.710846   C300.323944,352.240662 299.758514,353.564301 296.883423,353.111908   C294.671021,352.763763 291.473999,354.030731 290.447662,352.164795   C289.325317,350.124390 292.361145,348.405212 293.430206,346.464325   C294.296509,344.891571 295.257172,343.174835 296.635803,342.126862   C298.623962,340.615601 297.717590,343.127563 298.387634,344.039246  z"
   id="path62" />
<path
   fill="#58B4FE"
   opacity="1.000000"
   stroke="none"
   d=" M271.388916,184.773254   C276.497772,183.541183 280.996277,183.337784 284.454376,187.720581   C286.300446,190.060333 286.800842,187.865067 287.527405,186.764511   C289.830841,183.275558 292.287506,179.959671 295.736755,177.457825   C305.720856,170.216110 312.797852,173.118561 314.450134,185.215912   C314.760132,185.215912 315.131653,185.327316 315.379364,185.199265   C319.303680,183.170532 323.431335,180.990738 327.446838,184.409317   C331.443420,187.811737 330.647736,192.757401 329.643860,197.050568   C327.710449,205.319260 323.018219,211.843704 315.503326,216.166031   C295.873993,227.456192 276.274719,238.798584 256.641083,250.081177   C252.730209,252.328583 248.494034,255.142624 244.223404,251.555328   C239.990173,247.999481 240.432526,242.944229 241.876419,238.126617   C242.731400,235.273865 244.002594,232.545837 245.117752,229.014099   C245.250992,228.039017 245.353104,227.811584 245.661713,227.273926   C248.632080,224.178284 249.936096,221.148682 249.969574,216.904419   C250.074631,203.589935 260.719910,187.744720 271.388916,184.773254  z"
   id="path64" />
<path
   fill="#FED170"
   opacity="1.000000"
   stroke="none"
   d=" M271.784882,184.409958   C258.092712,192.998444 250.578384,204.624969 251.310760,220.940323   C251.461380,224.295837 247.928986,225.187195 246.421509,227.827667   C245.869446,228.214081 245.589340,228.416382 245.162506,228.842926   C245.000351,229.045670 245.006104,228.996475 245.029816,229.003113   C240.469269,230.271103 236.178375,232.880096 231.145126,232.077011   C229.684021,231.843872 228.178772,231.686630 226.797989,231.199295   C224.893753,230.527222 222.608948,229.393021 222.462433,227.476364   C222.294846,225.283691 225.134537,225.635147 226.620956,224.890533   C242.807129,216.781998 254.052139,204.756119 257.463623,186.428757   C258.736206,179.592377 256.929810,173.216675 254.092422,167.155731   C252.377533,163.492584 253.694763,162.923981 257.009583,162.987640   C264.934052,163.139893 270.958710,169.738800 271.812317,179.493942   C271.942108,180.977570 271.822754,182.483017 271.784882,184.409958  z"
   id="path66" />
<path
   fill="#FEFEFE"
   opacity="1.000000"
   stroke="none"
   d=" M245.284668,229.018829   C245.206345,228.754791 245.412354,228.463913 245.892807,228.104767   C245.967834,228.355011 245.768402,228.673492 245.284668,229.018829  z"
   id="path68" />
</svg>
